<svg width="480" height="360" viewBox="0 0 480 360" fill="none" xmlns="http://www.w3.org/2000/svg">
  <defs>
    <linearGradient id="heroGradient" x1="48" y1="48" x2="432" y2="312" gradientUnits="userSpaceOnUse">
      <stop offset="0" stop-color="#6366F1"/>
      <stop offset="0.5" stop-color="#0EA5E9"/>
      <stop offset="1" stop-color="#FBBF24"/>
    </linearGradient>
    <linearGradient id="cardGradient" x1="0" y1="0" x2="1" y2="1">
      <stop offset="0" stop-color="#FFFFFF" stop-opacity="0.95"/>
      <stop offset="1" stop-color="#EEF2FF" stop-opacity="0.95"/>
    </linearGradient>
    <linearGradient id="accentGradient" x1="0" y1="0" x2="1" y2="1">
      <stop offset="0" stop-color="#22D3EE"/>
      <stop offset="1" stop-color="#6366F1"/>
    </linearGradient>
    <filter id="shadow" x="-50%" y="-50%" width="200%" height="200%">
      <feGaussianBlur in="SourceAlpha" stdDeviation="16" result="blur"/>
      <feOffset dy="12" result="offset"/>
      <feComposite in="offset" in2="blur" operator="arithmetic" k2="-1" k3="1" result="shadowDiff"/>
      <feColorMatrix in="shadowDiff" type="matrix" values="0 0 0 0 0.18 0 0 0 0 0.2 0 0 0 0 0.3 0 0 0 0.15 0"/>
      <feBlend in="SourceGraphic" in2="shadowDiff" mode="normal"/>
    </filter>
  </defs>
  <rect x="32" y="32" width="416" height="296" rx="36" fill="url(#heroGradient)" fill-opacity="0.18"/>
  <g filter="url(#shadow)">
    <rect x="76" y="86" width="328" height="212" rx="24" fill="url(#cardGradient)"/>
  </g>
  <rect x="118" y="132" width="244" height="18" rx="9" fill="#1F2937" opacity="0.12"/>
  <rect x="118" y="168" width="196" height="18" rx="9" fill="#1F2937" opacity="0.08"/>
  <rect x="118" y="204" width="220" height="18" rx="9" fill="#1F2937" opacity="0.08"/>
  <rect x="118" y="240" width="180" height="18" rx="9" fill="#1F2937" opacity="0.06"/>
  <g transform="translate(284 114)">
    <circle cx="46" cy="46" r="46" fill="url(#accentGradient)" opacity="0.2"/>
    <path d="M26 38L38 52L66 22" stroke="#0EA5E9" stroke-width="6" stroke-linecap="round" stroke-linejoin="round"/>
    <circle cx="38" cy="52" r="6" fill="#0EA5E9"/>
    <circle cx="66" cy="22" r="6" fill="#0EA5E9"/>
  </g>
  <circle cx="148" cy="120" r="10" fill="#0EA5E9" opacity="0.4"/>
  <circle cx="338" cy="96" r="8" fill="#6366F1" opacity="0.4"/>
  <circle cx="360" cy="260" r="12" fill="#FBBF24" opacity="0.4"/>
  <rect x="232" y="272" width="140" height="40" rx="20" fill="url(#accentGradient)"/>
  <text x="302" y="298" text-anchor="middle" font-family="Sora, 'Segoe UI', sans-serif" font-size="16" font-weight="600" fill="#FFFFFF">
    Tham gia ngay
  </text>
</svg>
